<svg width="97" height="102" viewBox="0 0 97 102" fill="none" xmlns="http://www.w3.org/2000/svg">
<path d="M69.9336 20.3875L89.7102 1.22047C92.4004 -1.38674 97.0006 0.459801 97.0006 4.14727V55.3641C97.0002 38.7515 83.4276 28.6482 69.9336 20.3875Z" fill="#FF7236"/>
<path d="M96.9991 55.3646C96.9991 81.1208 75.4555 102 48.8804 102C22.3053 102 0.761719 81.1205 0.761719 55.3646C0.761719 29.6088 22.305 11.6439 48.8804 11.6439C75.4558 11.6439 96.9991 29.6085 96.9991 55.3646Z" fill="#FFAA50"/>
<path d="M27.8287 55.3641C27.8287 32.9177 41.1271 16.3992 58.8364 12.5219C55.6226 11.9504 52.2955 11.6434 48.8808 11.6434C40.0258 11.6434 31.7575 13.6755 24.6306 17.288L8.05205 1.22047C5.3619 -1.38674 0.761719 0.4598 0.761719 4.14727V55.3641C0.761719 54.3129 0.761719 54.3185 0.761719 55.3641C0.761719 81.1203 22.3053 101.999 48.8804 101.999C52.2955 101.999 55.6226 101.643 58.836 100.988C41.1271 96.5417 27.8287 77.8102 27.8287 55.3641Z" fill="#FF7236"/>
<path d="M38.354 84.5113C44.1673 84.5113 48.8798 80.5964 48.8798 75.7672C48.8798 70.938 44.1673 67.0231 38.354 67.0231C32.5407 67.0231 27.8281 70.938 27.8281 75.7672C27.8281 80.5964 32.5407 84.5113 38.354 84.5113Z" fill="#FFFDFB"/>
<path d="M59.4057 84.5113C65.219 84.5113 69.9316 80.5964 69.9316 75.7672C69.9316 70.938 65.219 67.0231 59.4057 67.0231C53.5925 67.0231 48.8799 70.938 48.8799 75.7672C48.8799 80.5964 53.5925 84.5113 59.4057 84.5113Z" fill="#FFFDFB"/>
<path d="M48.8811 75.7691C52.2031 75.7691 54.8961 73.1591 54.8961 69.9396C54.8961 66.72 52.2031 64.1101 48.8811 64.1101C45.5592 64.1101 42.8662 66.72 42.8662 69.9396C42.8662 73.1591 45.5592 75.7691 48.8811 75.7691Z" fill="#FF913C"/>
<path d="M30.8354 58.2787C29.173 58.2787 27.8281 56.9736 27.8281 55.3641V52.4496C27.8281 50.8401 29.1734 49.535 30.8354 49.535C32.4975 49.535 33.8427 50.8401 33.8427 52.4496V55.3641C33.8427 56.9736 32.4975 58.2787 30.8354 58.2787Z" fill="#1A212F"/>
<path d="M66.9243 58.2787C65.2619 58.2787 63.917 56.9736 63.917 55.3641V52.4496C63.917 50.8401 65.2622 49.535 66.9243 49.535C68.5867 49.535 69.9316 50.8401 69.9316 52.4496V55.3641C69.9319 56.9736 68.5867 58.2787 66.9243 58.2787Z" fill="#1A212F"/>
</svg>
