<svg width="1134" height="1097" viewBox="0 0 1134 1097" fill="none" xmlns="http://www.w3.org/2000/svg">
<path d="M1014.35 139.879C1058.82 233.998 1008.64 366.408 1027.27 483.736C1045.9 601.064 1133.36 703.09 1133.13 796.929C1132.91 890.548 1045.03 975.758 932.169 1033.2C819.6 1090.47 682.063 1119.97 580.982 1073.57C479.642 1027.13 414.785 904.569 317.096 817.021C219.435 729.252 88.9415 676.494 33.4805 592.238C-22.2674 508.164 -3.27001 392.774 67.1708 318.277C137.612 243.779 259.236 210.136 371.805 152.872C484.661 95.4261 588.202 14.3214 709.65 1.8133C831.099 -10.6948 969.909 45.5383 1014.35 139.879Z" fill="url(#paint0_linear_2348_8)"/>
<defs>
<linearGradient id="paint0_linear_2348_8" x1="184.01" y1="132.959" x2="593.791" y2="1078.09" gradientUnits="userSpaceOnUse">
<stop stop-color="#FEA653"/>
<stop offset="1" stop-color="#F8B653"/>
</linearGradient>
</defs>
</svg>
