<svg xmlns="http://www.w3.org/2000/svg" width="161" height="234" viewBox="0 0 161 234" fill="none">
  <path d="M148.121 190.907C137.426 151.493 183.607 113.845 210.784 141.022C222.505 152.743 223.843 171.693 217.103 187.467C201.534 223.898 157.298 224.751 148.121 190.907Z" fill="#FAC663" fill-opacity="0.15"/>
  <path d="M127.579 159.985C157.64 190.046 115.627 250.06 78.6813 229.887C61.8497 220.695 56.2193 196.734 68.2215 175.227C81.6686 151.116 110.679 143.085 127.579 159.985Z" fill="#FAC663" fill-opacity="0.15"/>
  <path d="M210.652 61.4493C205.324 58.4279 197.171 51.7615 189.309 44.1135C180.991 36.0355 172.995 26.8654 168.978 19.7757C158.155 0.601428 127.644 -9.70525 111.141 15.7533C95.8875 39.2911 111.874 53.0682 97.0121 74.9689C81.9808 97.0919 86.7952 119.837 100.891 132.531C113.938 144.278 134.938 147.41 155.487 133.436C177.38 118.54 191.116 134.507 214.641 119.253C240.133 102.75 229.729 72.251 210.652 61.4493Z" fill="#FAC663" fill-opacity="0.15"/>
  <path d="M74.6739 107.077C83.177 115.58 85.5444 127.818 82.049 139.429C71.6521 173.952 20.7465 185.233 4.78657 155.955C-15.412 118.937 44.6295 77.0323 74.6739 107.077Z" fill="#FAC663" fill-opacity="0.15"/>
  <path d="M95.4668 59.1088C81.5183 92.362 29.8105 98.3115 17.0305 67.3899C1.63488 30.1445 60.363 -5.36656 89.3035 23.5739C98.5912 32.8616 100.77 46.4682 95.4668 59.1088Z" fill="#FAC663" fill-opacity="0.15"/>
</svg>